# xmcd CD database file
#
# Track frame offsets:
#	150
#	19388
#	42440
#	63104
#	84446
#	104223
#	121417
#	141074
#	167441
#	189337
#	205119
#	227413
#	241533
#
# Disc length: 3420 seconds
#
# Revision: 2
# Processed by: cddbd v1.5PL3 Copyright (c) Steve Scherf et al.
# Submitted via: CDex 1.51
#
DISCID=a20d5a0d
DTITLE=BoA - Love and Honesty
DYEAR=2004
DGENRE=Pop
TTITLE0=Rock With You
TTITLE1=Shine We Are!
TTITLE2=Some Day One Day (Feat. VERBAL (M-FLO)
TTITLE3=Love and Honesty
TTITLE4=Midnight Parade
TTITLE5=Be The One
TTITLE6=Expect
TTITLE7=Over -Across The Time-
TTITLE8=心の手紙
TTITLE9=Double
TTITLE10=Easy To Be Hard
TTITLE11=Song With No Name 〜名前のない歌〜
TTITLE12=Milky Way -君の歌-
EXTD=YEAR: 2004
EXTT0=
EXTT1=
EXTT2=
EXTT3=
EXTT4=
EXTT5=
EXTT6=
EXTT7=
EXTT8=
EXTT9=
EXTT10=
EXTT11=
EXTT12=
PLAYORDER=
